<svg width="54" height="53" viewBox="0 0 54 53" fill="none" xmlns="http://www.w3.org/2000/svg">
<path d="M53.1647 50.8946H45.5372C46.9799 49.9666 47.9421 48.3464 47.9421 46.4986C47.9421 43.6128 45.5967 41.2674 42.711 41.2674C39.817 41.2674 37.4798 43.6129 37.4798 46.4986C37.4798 48.3464 38.4331 49.9662 39.8762 50.8946H16.9766C18.4193 49.9666 19.3815 48.3464 19.3815 46.4986C19.3815 43.6128 17.0361 41.2674 14.1504 41.2674C11.2564 41.2674 8.91922 43.6129 8.91922 46.4986C8.91922 48.3464 9.87246 49.9662 11.3156 50.8946H1.12275C0.658557 50.8946 0.287598 51.2741 0.287598 51.7298C0.287598 52.1854 0.658955 52.5649 1.12275 52.5649H53.1648C53.629 52.5649 54 52.1854 54 51.7298C54.0004 51.2741 53.629 50.8946 53.1648 50.8946H53.1647ZM42.7024 44.3893C43.867 44.3893 44.8117 45.3344 44.8117 46.4986C44.8117 47.6631 43.8666 48.6078 42.7024 48.6078C41.5378 48.6078 40.5931 47.6627 40.5931 46.4986C40.5846 45.334 41.5382 44.3893 42.7024 44.3893ZM14.1416 44.3893C15.3062 44.3893 16.2509 45.3344 16.2509 46.4986C16.2509 47.6631 15.3058 48.6078 14.1416 48.6078C12.9771 48.6078 12.0324 47.6627 12.0324 46.4986C12.0324 45.334 12.9771 44.3893 14.1416 44.3893Z" fill="#596B86"/>
<path d="M2.46415 15.1451L9.57695 15.2294C10.8006 15.2461 11.8043 14.2676 11.8128 13.044C11.8295 11.8203 10.8425 10.8167 9.62737 10.8081H9.59358C9.60212 10.7658 9.60212 10.7405 9.60212 10.6986C9.61883 9.07019 8.31136 7.73707 6.6826 7.71181C5.0962 7.69511 3.78863 8.92689 3.70401 10.4962C3.34975 10.2938 2.95314 10.1839 2.51418 10.1757C1.14765 10.1501 0.0172909 11.2556 0.000186884 12.6307C-0.0165164 14.0062 1.08858 15.1284 2.46406 15.1451L2.46415 15.1451Z" fill="#596B86"/>
<path d="M41.7498 2.5649C42.214 2.5649 42.585 2.18539 42.585 1.72975V0.835155C42.585 0.370959 42.2136 0 41.7498 0C41.2857 0 40.9147 0.379511 40.9147 0.835155V1.7212C40.9061 2.18501 41.2857 2.56491 41.7498 2.56491V2.5649Z" fill="#596B86"/>
<path d="M38.4503 2.83489C38.6022 3.10486 38.8892 3.25674 39.1759 3.25674C39.3193 3.25674 39.463 3.22295 39.5978 3.1472C40.0029 2.91956 40.1377 2.40488 39.9015 1.99973L39.4544 1.22323C39.2268 0.818083 38.7121 0.683289 38.307 0.919464C37.9018 1.1471 37.767 1.66178 38.0032 2.06693L38.4503 2.83489Z" fill="#596B86"/>
<path d="M36.1045 4.58138L36.8724 5.02033C37.0076 5.09607 37.151 5.12987 37.2943 5.12987C37.5814 5.12987 37.868 4.97799 38.0199 4.70802C38.2476 4.30287 38.1128 3.79672 37.7162 3.56055L36.9482 3.11345C36.543 2.87728 36.0369 3.02061 35.8007 3.41722C35.5646 3.83052 35.6997 4.34521 36.1045 4.58139L36.1045 4.58138Z" fill="#596B86"/>
<path d="M35.7077 7.71183H36.5938C37.058 7.71183 37.4289 7.33231 37.4289 6.87667C37.4289 6.41247 37.0576 6.04152 36.5938 6.04152H35.7077C35.2435 6.04152 34.8726 6.42103 34.8726 6.87667C34.8726 7.33193 35.2439 7.71183 35.7077 7.71183Z" fill="#596B86"/>
<path d="M43.9006 3.13868C44.0358 3.21443 44.1792 3.24822 44.3225 3.24822C44.6096 3.24822 44.8962 3.09635 45.0481 2.82637L45.4952 2.05841C45.7229 1.65326 45.5881 1.14711 45.1915 0.910946C44.7863 0.67477 44.2802 0.818107 44.044 1.21471L43.5969 1.98267C43.3603 2.39598 43.4955 2.90251 43.9007 3.13869L43.9006 3.13868Z" fill="#596B86"/>
<path d="M42.4331 8.18417C42.0617 7.97325 41.6399 7.8637 41.1842 7.8637C39.7415 7.8637 38.5769 9.03642 38.5769 10.471C38.5769 11.9055 39.7496 13.0783 41.1842 13.0783H48.6431C49.9257 13.0783 50.9633 12.0403 50.9633 10.7581C50.9633 9.47546 49.9172 8.43788 48.6431 8.43788H48.6093C48.6179 8.39554 48.6179 8.36213 48.6179 8.31979C48.6179 6.6071 47.2257 5.22306 45.5212 5.22306C43.859 5.23122 42.5006 6.53868 42.433 8.18415L42.4331 8.18417Z" fill="#596B86"/>
<path d="M38.4253 6.86777C38.4253 6.97731 38.442 7.0787 38.4506 7.18824C39.1929 6.57217 40.138 6.18407 41.1759 6.18407H41.2435C41.7158 5.23899 42.4924 4.47954 43.4456 4.02389C42.9476 3.72013 42.3739 3.543 41.7496 3.543C39.9185 3.54339 38.4253 5.03692 38.4253 6.86775L38.4253 6.86777Z" fill="#596B86"/>
<path d="M3.07186 35.8082C3.07186 35.1416 3.18141 34.4918 3.40088 33.8846L4.86069 29.6828C4.47263 29.4466 4.01698 29.3114 3.53612 29.3114C2.11012 29.3114 0.954102 30.4674 0.954102 31.8934V39.2257C0.954102 40.4913 1.87394 41.5459 3.08047 41.7568L3.08009 35.8082L3.07186 35.8082Z" fill="#596B86"/>
<path d="M7.74662 26.4686L4.97934 34.4504C4.82746 34.8894 4.75171 35.3532 4.75171 35.8088V41.9851H8.92828C10.1939 40.5171 12.0669 39.5887 14.151 39.5887C16.235 39.5887 18.1081 40.5253 19.3737 41.9851H37.4891C38.7547 40.5171 40.6277 39.5887 42.7118 39.5887C44.7959 39.5887 46.6689 40.5253 47.9345 41.9851H50.837V39.4707C50.837 39.1502 50.8032 38.8465 50.7442 38.5427C50.339 36.5178 48.6178 34.9566 46.4918 34.8051L40.2988 34.3661L35.3714 25.7597C34.6291 24.4771 33.2621 23.6757 31.7771 23.6757H11.6619C9.88983 23.6842 8.32898 24.7979 7.74675 26.4686L7.74662 26.4686ZM22.5715 27.6246C22.5715 27.0932 23.0019 26.6543 23.5418 26.6543H31.7598C32.1817 26.6543 32.5697 26.8819 32.7807 27.2447L36.3835 33.5391C36.7548 34.189 36.2906 34.9904 35.5398 34.9904H23.5421C23.0107 34.9904 22.5717 34.56 22.5717 34.0201L22.5715 27.6246ZM19.9646 27.6246V34.0285C19.9646 34.5599 19.5342 34.9989 18.9942 34.9989H9.29943C8.63286 34.9989 8.16867 34.3408 8.38813 33.7162L10.5565 27.4471C10.7169 26.9748 11.164 26.6625 11.6616 26.6625H18.9938C19.5342 26.6543 19.9646 27.0847 19.9646 27.6246H19.9646Z" fill="#596B86"/>
<path d="M49.6127 46.4992C49.6127 47.0392 49.5452 47.5624 49.4271 48.0685H51.4691C52.0343 48.0685 52.4985 47.6129 52.4985 47.0391V44.6937C52.4985 44.1285 52.0429 43.6642 51.4691 43.6642H48.9971C49.3847 44.5332 49.6128 45.4864 49.6128 46.4991L49.6127 46.4992Z" fill="#596B86"/>
<path d="M4.0929 43.6641C3.52771 43.6641 3.06348 44.1198 3.06348 44.6936V47.039C3.06348 47.6042 3.51912 48.0684 4.0929 48.0684H7.41725C7.29917 47.5623 7.23158 47.039 7.23158 46.4991C7.23158 45.4864 7.45104 44.5332 7.84765 43.6642L4.0929 43.6641Z" fill="#596B86"/>
<path d="M20.4443 43.6641C20.8324 44.5331 21.0604 45.4867 21.0604 46.499C21.0604 47.039 20.9928 47.5622 20.8747 48.0683H35.986C35.8679 47.5622 35.8003 47.0389 35.8003 46.499C35.8003 45.4863 36.0198 44.5331 36.4164 43.6641H20.4443Z" fill="#596B86"/>
</svg>
